<svg xmlns="http://www.w3.org/2000/svg" viewBox="0 0 64 64">
  <defs>
    <linearGradient id="bg" x1="10" y1="8" x2="54" y2="56" gradientUnits="userSpaceOnUse">
      <stop offset="0" stop-color="#1f3a2e" />
      <stop offset="1" stop-color="#2f6b55" />
    </linearGradient>
    <linearGradient id="accent" x1="18" y1="16" x2="50" y2="44" gradientUnits="userSpaceOnUse">
      <stop offset="0" stop-color="#f5c87a" />
      <stop offset="1" stop-color="#e26a2c" />
    </linearGradient>
  </defs>
  <rect x="4" y="4" width="56" height="56" rx="18" fill="url(#bg)" />
  <path
    d="M18 22.5c0-5.25 4.25-9.5 9.5-9.5h8c6.9 0 12.5 5.6 12.5 12.5S42.4 38 35.5 38H28v8h-5.25c-2.62 0-4.75-2.13-4.75-4.75V22.5Z"
    fill="#f8f3ea"
  />
  <path
    d="M24 18h10.75c4.83 0 8.75 3.92 8.75 8.75s-3.92 8.75-8.75 8.75H24V18Z"
    fill="url(#accent)"
  />
  <path
    d="M31.5 23.5c0-1.1-.9-2-2-2s-2 .9-2 2 .9 2 2 2 2-.9 2-2Zm8 0c0-1.1-.9-2-2-2s-2 .9-2 2 .9 2 2 2 2-.9 2-2Z"
    fill="#1f3a2e"
  />
  <path
    d="M21 46c2.2-4.4 6.03-6.6 11.5-6.6S41.8 41.6 44 46"
    fill="none"
    stroke="#f5c87a"
    stroke-linecap="round"
    stroke-width="4"
  />
</svg>
